<!--?xml version="1.0" encoding="UTF-8" standalone="no"?-->
<!-- Created with Inkscape (http://www.inkscape.org/) -->

<svg xmlns:dc="http://purl.org/dc/elements/1.1/" xmlns:cc="http://creativecommons.org/ns#" xmlns:rdf="http://www.w3.org/1999/02/22-rdf-syntax-ns#" xmlns:svg="http://www.w3.org/2000/svg" xmlns="http://www.w3.org/2000/svg" xmlns:sodipodi="http://sodipodi.sourceforge.net/DTD/sodipodi-0.dtd" xmlns:inkscape="http://www.inkscape.org/namespaces/inkscape" width="360.05878mm" height="70.804802mm" viewBox="0 0 360.05878 70.804802" version="1.1" id="svg2191" inkscape:version="0.92.3 (2405546, 2018-03-11)" sodipodi:docname="name.svg" style="">
  <defs id="defs2185"></defs>
  <sodipodi:namedview id="base" pagecolor="#ffffff" bordercolor="#666666" borderopacity="1.0" inkscape:pageopacity="0.0" inkscape:pageshadow="2" inkscape:zoom="0.35" inkscape:cx="792.04426" inkscape:cy="-235.71633" inkscape:document-units="mm" inkscape:current-layer="layer1" showgrid="false" inkscape:window-width="1280" inkscape:window-height="969" inkscape:window-x="0" inkscape:window-y="27" inkscape:window-maximized="1"></sodipodi:namedview>
  <metadata id="metadata2188">
    <rdf:rdf>
      <cc:work rdf:about="">
        <dc:format>image/svg+xml</dc:format>
        <dc:type rdf:resource="http://purl.org/dc/dcmitype/StillImage"></dc:type>
        <dc:title></dc:title>
      </cc:work>
    </rdf:rdf>
  </metadata>
  <g inkscape:label="Layer 1" inkscape:groupmode="layer" id="layer1" transform="translate(217.49921,-15.661949)">
    <g aria-label="Shafeen Rahman" transform="matrix(0.26458333,0,0,0.26458333,1.5119048,-0.75595238)" style="font-style:normal;font-weight:normal;font-size:40px;line-height:1.25;font-family:sans-serif;letter-spacing:0px;word-spacing:0px;fill:none;fill-opacity:1;stroke:#fffdfd;stroke-opacity:1;opacity:1;stroke-width:3.77952761;stroke-miterlimit:4;stroke-dasharray:none" id="flowRoot2736">
      <path d="m -765.78827,267.66736 q -25.536,0 -40.896,-9.6 -15.36,-9.792 -15.36,-29.76 0,-10.56 3.648,-16.128 3.648,-5.568 10.752,-5.568 5.184,0 8.448,2.688 3.264,2.688 3.264,6.912 0,3.84 -0.576,6.72 0,0.768 -0.384,2.688 -0.192,1.92 -0.192,4.032 0,8.64 8.64,12.864 8.832,4.224 24.576,4.224 16.32,0 25.536,-5.76 9.216,-5.952 9.216,-16.512 0,-6.528 -4.224,-11.136 -4.224,-4.8 -10.56,-7.872 -6.336,-3.264 -17.856,-7.872 -14.784,-5.76 -24.192,-10.944 -9.216,-5.184 -15.936,-14.016 -6.528,-9.024 -6.528,-22.272 0,-13.824 7.296,-24.576 7.488,-10.752 21.312,-16.704 14.016,-5.952 32.832,-5.952 14.016,0 25.728,4.224 11.712,4.032 18.624,12.48 7.104,8.448 7.104,20.736 0,12.096 -3.648,18.24 -3.648,6.144 -10.752,6.144 -4.992,0 -8.448,-3.072 -3.264,-3.072 -3.264,-7.296 0,-3.648 0.576,-6.72 0.576,-5.76 0.576,-7.296 0,-8.064 -7.872,-12.288 -7.872,-4.224 -19.584,-4.224 -16.512,0 -25.344,6.144 -8.64,5.952 -8.64,16.896 0,7.296 4.416,12.48 4.608,5.184 11.328,8.64 6.72,3.456 18.816,8.256 14.592,5.952 23.424,10.752 8.832,4.8 14.976,13.056 6.336,8.256 6.336,20.352 0,22.656 -17.28,34.944 -17.088,12.096 -45.888,12.096 z" style="font-style: normal; font-variant: normal; font-weight: normal; font-stretch: normal; font-size: 192px; font-family: Pacifico; fill: none; stroke: rgb(255, 253, 253); stroke-opacity: 1; stroke-width: 3.77953; stroke-miterlimit: 4;" id="path2744" inkscape:connector-curvature="0" class="vFfXRQOS_0"></path>
      <path d="m -581.54627,223.31536 q 2.496,0 3.84,2.304 1.536,2.304 1.536,6.336 0,7.68 -3.648,11.904 -8.832,10.176 -18.24,16.704 -9.216,6.528 -21.12,6.528 -9.792,0 -14.784,-5.568 -4.992,-5.76 -4.992,-16.512 0,-5.376 2.688,-19.2 2.496,-12.096 2.496,-16.704 0,-3.072 -2.112,-3.072 -2.496,0 -7.104,6.528 -4.608,6.336 -9.216,16.896 -4.608,10.56 -7.488,22.272 -3.648,15.36 -18.048,15.36 -5.76,0 -7.68,-4.032 -1.728,-4.224 -1.728,-14.976 0,-6.144 0.192,-9.792 l 0.192,-15.36 q 0,-29.568 5.952,-61.632 6.144,-32.064 17.856,-53.76 11.904,-21.888002 28.416,-21.888002 8.832,0 14.208,7.68 5.568,7.488002 5.568,19.584002 0,19.392 -11.328,40.32 -11.328,20.736 -36.864,48.576 -0.576,9.984 -0.576,20.544 6.336,-16.32 14.016,-26.496 7.872,-10.368 15.36,-14.784 7.68,-4.416 14.016,-4.416 12.48,0 12.48,12.48 0,7.488 -4.224,27.072 -3.648,16.704 -3.648,22.08 0,7.68 5.568,7.68 3.84,0 9.024,-4.608 5.376,-4.8 14.208,-15.36 2.304,-2.688 5.184,-2.688 z m -57.024,-118.656 q -3.456,0 -7.68,9.984 -4.224,9.792 -8.256,26.688 -3.84,16.704 -6.336,36.48 11.904,-14.016 19.584,-30.528 7.872,-16.512 7.872,-29.952 0,-6.144 -1.344,-9.408 -1.344,-3.264 -3.84,-3.264 z" style="font-style: normal; font-variant: normal; font-weight: normal; font-stretch: normal; font-size: 192px; font-family: Pacifico; fill: none; stroke: rgb(255, 253, 253); stroke-opacity: 1; stroke-width: 3.77953; stroke-miterlimit: 4;" id="path2746" inkscape:connector-curvature="0" class="vFfXRQOS_1"></path>
      <path d="m -568.11527,267.09136 q -11.904,0 -19.008,-8.64 -7.104,-8.64 -7.104,-22.656 0,-15.36 7.104,-28.992 7.104,-13.824 18.816,-22.08 11.904,-8.448 25.152,-8.448 4.224,0 5.568,1.728 1.536,1.536 2.496,5.76 4.032,-0.768 8.448,-0.768 9.408,0 9.408,6.72 0,4.032 -2.88,19.2 -4.416,22.08 -4.416,30.72 0,2.88 1.344,4.608 1.536,1.728 3.84,1.728 3.648,0 8.832,-4.608 5.184,-4.8 14.016,-15.36 2.304,-2.688 5.184,-2.688 2.496,0 3.84,2.304 1.536,2.304 1.536,6.336 0,7.68 -3.648,11.904 -7.872,9.792 -16.704,16.512 -8.832,6.72 -17.088,6.72 -6.336,0 -11.712,-4.224 -5.184,-4.416 -7.872,-11.904 -9.984,16.128 -25.152,16.128 z m 6.912,-19.392 q 4.224,0 8.064,-4.992 3.84,-4.992 5.568,-13.248 l 7.104,-35.328 q -8.064,0.192 -14.976,6.144 -6.72,5.76 -10.752,15.36 -4.032,9.6 -4.032,20.352 0,5.952 2.304,8.832 2.496,2.88 6.72,2.88 z" style="font-style: normal; font-variant: normal; font-weight: normal; font-stretch: normal; font-size: 192px; font-family: Pacifico; fill: none; stroke: rgb(255, 253, 253); stroke-opacity: 1; stroke-width: 3.77953; stroke-miterlimit: 4;" id="path2748" inkscape:connector-curvature="0" class="vFfXRQOS_2"></path>
      <path d="m -426.62327,212.37136 q 5.376,0 5.376,8.064 0,15.168 -23.808,15.168 -4.608,0 -13.248,-1.728 2.496,11.904 4.032,26.496 1.728,14.4 1.728,23.808 0,20.736 -6.72,31.68 -6.72,10.944 -17.664,10.944 -13.824,0 -19.776,-19.584 -5.76,-19.584 -5.76,-59.136 0,-36.864 7.872,-74.688 8.064,-38.016 21.888,-62.784 14.016,-24.960002 30.72,-24.960002 9.024,0 14.016,8.064 5.184,8.064002 5.184,21.696002 0,45.12 -53.952,98.304 -1.92,18.816 -1.92,33.024 0,19.776 1.344,40.512 1.344,20.928 4.416,20.928 5.76,0 5.76,-19.968 0,-14.976 -2.112,-28.992 -1.92,-14.016 -5.376,-29.568 -0.192,-2.496 1.536,-6.336 1.92,-3.84 4.608,-6.72 2.688,-2.88 4.8,-2.88 3.84,0 9.216,0.384 1.728,0.192 4.032,0.192 7.68,0 17.088,-1.344 1.536,-0.192 3.264,-0.384 1.728,-0.192 3.456,-0.192 z m -19.392,-107.712 q -3.456,0 -8.64,11.712 -4.992,11.712 -9.984,31.104 -4.992,19.2 -8.64,40.704 15.36,-17.472 23.616,-36.288 8.256,-19.008 8.448,-35.52 0,-11.712 -4.8,-11.712 z" style="font-style: normal; font-variant: normal; font-weight: normal; font-stretch: normal; font-size: 192px; font-family: Pacifico; fill: none; stroke: rgb(255, 253, 253); stroke-opacity: 1; stroke-width: 3.77953; stroke-miterlimit: 4;" id="path2750" inkscape:connector-curvature="0" class="vFfXRQOS_3"></path>
      <path d="m -350.09927,223.31536 q 2.496,0 3.84,2.304 1.536,2.304 1.536,6.336 0,7.68 -3.648,11.904 -7.104,8.64 -20.16,15.936 -12.864,7.296 -27.648,7.296 -20.16,0 -31.296,-10.944 -11.136,-10.944 -11.136,-29.952 0,-13.248 5.568,-24.576 5.568,-11.52 15.36,-18.24 9.984,-6.72 22.464,-6.72 11.136,0 17.856,6.72 6.72,6.528 6.72,17.856 0,13.248 -9.6,22.848 -9.408,9.408 -32.064,14.976 4.8,8.832 18.24,8.832 8.64,0 19.584,-5.952 11.136,-6.144 19.2,-15.936 2.304,-2.688 5.184,-2.688 z m -48.384,-27.84 q -7.104,0 -12.096,8.256 -4.8,8.256 -4.8,19.968 v 0.384 q 11.328,-2.688 17.856,-8.064 6.528,-5.376 6.528,-12.48 0,-3.648 -2.112,-5.76 -1.92,-2.304 -5.376,-2.304 z" style="font-style: normal; font-variant: normal; font-weight: normal; font-stretch: normal; font-size: 192px; font-family: Pacifico; fill: none; stroke: rgb(255, 253, 253); stroke-opacity: 1; stroke-width: 3.77953; stroke-miterlimit: 4;" id="path2752" inkscape:connector-curvature="0" class="vFfXRQOS_4"></path>
      <path d="m -274.72427,223.31536 q 2.496,0 3.84,2.304 1.536,2.304 1.536,6.336 0,7.68 -3.648,11.904 -7.104,8.64 -20.16,15.936 -12.864,7.296 -27.648,7.296 -20.16,0 -31.296,-10.944 -11.136,-10.944 -11.136,-29.952 0,-13.248 5.568,-24.576 5.568,-11.52 15.36,-18.24 9.984,-6.72 22.464,-6.72 11.136,0 17.856,6.72 6.72,6.528 6.72,17.856 0,13.248 -9.6,22.848 -9.408,9.408 -32.064,14.976 4.8,8.832 18.24,8.832 8.64,0 19.584,-5.952 11.136,-6.144 19.2,-15.936 2.304,-2.688 5.184,-2.688 z m -48.384,-27.84 q -7.104,0 -12.096,8.256 -4.8,8.256 -4.8,19.968 v 0.384 q 11.328,-2.688 17.856,-8.064 6.528,-5.376 6.528,-12.48 0,-3.648 -2.112,-5.76 -1.92,-2.304 -5.376,-2.304 z" style="font-style: normal; font-variant: normal; font-weight: normal; font-stretch: normal; font-size: 192px; font-family: Pacifico; fill: none; stroke: rgb(255, 253, 253); stroke-opacity: 1; stroke-width: 3.77953; stroke-miterlimit: 4;" id="path2754" inkscape:connector-curvature="0" class="vFfXRQOS_5"></path>
      <path d="m -271.34927,267.09136 q -7.296,0 -10.368,-7.68 -2.88,-7.68 -2.88,-24.576 0,-24.96 7.104,-47.424 1.728,-5.568 5.568,-8.064 4.032,-2.688 11.136,-2.688 3.84,0 5.376,0.96 1.536,0.96 1.536,3.648 0,3.072 -2.88,13.824 -1.92,7.68 -3.072,13.44 -1.152,5.76 -1.92,14.208 6.336,-16.512 14.208,-26.88 7.872,-10.368 15.36,-14.784 7.68,-4.416 14.016,-4.416 6.144,0 9.216,3.264 3.264,3.072 3.264,9.216 0,4.992 -2.112,18.816 -1.92,11.712 -3.072,22.272 -1.152,10.368 -1.152,23.232 0,7.296 -3.072,10.56 -2.88,3.072 -9.6,3.072 -6.336,0 -9.216,-3.264 -2.88,-3.264 -2.88,-9.792 0,-7.68 2.688,-25.344 2.304,-15.36 2.304,-19.584 0,-3.072 -2.112,-3.072 -2.496,0 -7.104,6.528 -4.416,6.336 -9.216,16.896 -4.608,10.56 -7.488,22.272 -2.112,9.024 -4.992,12.288 -2.688,3.072 -8.64,3.072 z" style="font-style: normal; font-variant: normal; font-weight: normal; font-stretch: normal; font-size: 192px; font-family: Pacifico; fill: none; stroke: rgb(255, 253, 253); stroke-opacity: 1; stroke-width: 3.77953; stroke-miterlimit: 4;" id="path2756" inkscape:connector-curvature="0" class="vFfXRQOS_6"></path>
      <path d="m 38.154734,223.31536 q 2.496,0 3.84,2.304 1.536,2.304 1.536,6.336 0,7.488 -3.648,11.904 -9.216,11.136 -18.624,17.28 -9.408,5.952 -22.2719996,5.952 -12.4800004,0 -21.3120004,-6.72 -8.64,-6.72 -16.512,-23.04 -6.336,-13.056 -9.984,-19.2 -3.648,-6.336 -7.296,-9.024 -3.456,-2.688 -8.64,-3.264 -0.768,4.032 -4.416,25.344 -1.536,9.6 -1.92,11.712 -1.92,11.712 -7.68,18.048 -5.76,6.144 -17.472,6.144 -12.864004,0 -22.848004,-7.488 -9.792,-7.68 -15.168,-21.12 -5.376,-13.632 -5.376,-30.912 0,-32.256 11.136,-55.68 11.328,-23.424 31.488004,-35.712 20.352,-12.48 46.848,-12.48 18.432,0 30.912,5.568 12.4800004,5.568 18.43200038,15.36 6.14400002,9.792 6.14400002,22.08 0,10.752 -5.18400002,21.12 -4.99199998,10.176 -15.16800038,18.048 -10.176,7.872 -24.768,11.712 9.216,2.496 14.208,8.064 4.992,5.568 9.984,16.32 5.376,11.52 10.5600004,16.896 5.37599998,5.376 12.288,5.376 6.1439996,0 11.7119996,-4.032 5.568,-4.224 14.016,-14.208 2.304,-2.688 5.184,-2.688 z m -129.408,-17.664 q -6.528,0 -9.024004,-3.072 -2.304,-3.072 -2.304,-6.912 0,-4.608 2.880004,-7.296 3.072,-2.688 6.912,-2.688 h 4.8 q 3.072,-18.816 5.76,-32.448 2.496,-12.48 16.128,-12.48 10.944,0 10.944,9.792 0,2.112 -0.192,3.264 l -5.76,31.872 q 10.368,-0.576 18.816,-4.992 8.64,-4.416 13.632,-12.288 5.184,-7.872 5.184,-17.856 0,-12.096 -8.256,-19.008 -8.256,-6.912 -24.192,-6.912 -18.816,0 -33.024,9.408 -14.016004,9.216 -21.888004,27.648 -7.872,18.24 -7.872,44.544 0,12.288 2.496,21.12 2.496,8.832 6.144,13.248 3.648,4.416 6.912,4.416 2.496,0 4.032004,-2.496 1.728,-2.496 2.688,-8.064 z" style="font-style: normal; font-variant: normal; font-weight: normal; font-stretch: normal; font-size: 192px; font-family: Pacifico; fill: none; stroke: rgb(255, 253, 253); stroke-opacity: 1; stroke-width: 3.77953; stroke-miterlimit: 4;" id="path2758" inkscape:connector-curvature="0" class="vFfXRQOS_7"></path>
      <path d="m 48.009734,267.09136 q -11.904,0 -19.008,-8.64 -7.104,-8.64 -7.104,-22.656 0,-15.36 7.104,-28.992 7.104,-13.824 18.816,-22.08 11.904,-8.448 25.152,-8.448 4.224,0 5.568,1.728 1.536,1.536 2.496,5.76 4.032,-0.768 8.448,-0.768 9.408,0 9.408,6.72 0,4.032 -2.88,19.2 -4.416,22.08 -4.416,30.72 0,2.88 1.344,4.608 1.536,1.728 3.84,1.728 3.647996,0 8.831996,-4.608 5.184,-4.8 14.016,-15.36 2.304,-2.688 5.184,-2.688 2.496,0 3.84,2.304 1.536,2.304 1.536,6.336 0,7.68 -3.648,11.904 -7.872,9.792 -16.704,16.512 -8.832,6.72 -17.087996,6.72 -6.336,0 -11.712,-4.224 -5.184,-4.416 -7.872,-11.904 -9.984,16.128 -25.152,16.128 z m 6.912,-19.392 q 4.224,0 8.064,-4.992 3.84,-4.992 5.568,-13.248 l 7.104,-35.328 q -8.064,0.192 -14.976,6.144 -6.72,5.76 -10.752,15.36 -4.032,9.6 -4.032,20.352 0,5.952 2.304,8.832 2.496,2.88 6.72,2.88 z" style="font-style: normal; font-variant: normal; font-weight: normal; font-stretch: normal; font-size: 192px; font-family: Pacifico; fill: none; stroke: rgb(255, 253, 253); stroke-opacity: 1; stroke-width: 3.77953; stroke-miterlimit: 4;" id="path2760" inkscape:connector-curvature="0" class="vFfXRQOS_8"></path>
      <path d="m 221.32873,223.31536 q 2.496,0 3.84,2.304 1.536,2.304 1.536,6.336 0,7.68 -3.648,11.904 -8.832,10.176 -18.24,16.704 -9.216,6.528 -21.12,6.528 -9.792,0 -14.784,-5.568 -4.992,-5.76 -4.992,-16.512 0,-5.376 2.688,-19.2 2.496,-12.096 2.496,-16.704 0,-3.072 -2.112,-3.072 -2.496,0 -7.104,6.528 -4.608,6.336 -9.216,16.896 -4.608,10.56 -7.488,22.272 -3.648,15.36 -18.048,15.36 -5.76,0 -7.68,-4.032 -1.728,-4.224 -1.728,-14.976 0,-6.144 0.192,-9.792 l 0.192,-15.36 q 0,-29.568 5.952,-61.632 6.144,-32.064 17.856,-53.76 11.904,-21.888002 28.416,-21.888002 8.832,0 14.208,7.68 5.568,7.488002 5.568,19.584002 0,19.392 -11.328,40.32 -11.328,20.736 -36.864,48.576 -0.576,9.984 -0.576,20.544 6.336,-16.32 14.016,-26.496 7.872,-10.368 15.36,-14.784 7.68,-4.416 14.016,-4.416 12.48,0 12.48,12.48 0,7.488 -4.224,27.072 -3.648,16.704 -3.648,22.08 0,7.68 5.568,7.68 3.84,0 9.024,-4.608 5.376,-4.8 14.208,-15.36 2.304,-2.688 5.184,-2.688 z m -57.024,-118.656 q -3.456,0 -7.68,9.984 -4.224,9.792 -8.256,26.688 -3.84,16.704 -6.336,36.48 11.904,-14.016 19.584,-30.528 7.872,-16.512 7.872,-29.952 0,-6.144 -1.344,-9.408 -1.344,-3.264 -3.84,-3.264 z" style="font-style: normal; font-variant: normal; font-weight: normal; font-stretch: normal; font-size: 192px; font-family: Pacifico; fill: none; stroke: rgb(255, 253, 253); stroke-opacity: 1; stroke-width: 3.77953; stroke-miterlimit: 4;" id="path2762" inkscape:connector-curvature="0" class="vFfXRQOS_9"></path>
      <path d="m 224.77573,267.09136 q -7.296,0 -10.368,-7.68 -2.88,-7.68 -2.88,-24.576 0,-24.96 7.104,-47.424 1.728,-5.568 5.568,-8.064 4.032,-2.688 11.136,-2.688 3.84,0 5.376,0.96 1.536,0.96 1.536,3.648 0,3.072 -2.88,13.824 -1.92,7.68 -3.072,13.44 -1.152,5.568 -1.92,14.016 5.184,-14.976 12.288,-25.344 7.296,-10.368 14.784,-15.36 7.68,-5.184 14.4,-5.184 6.72,0 9.408,3.072 2.88,3.072 2.88,9.408 0,6.144 -3.648,22.272 -1.536,6.912 -2.112,10.368 9.6,-23.616 21.312,-34.368 11.712,-10.752 21.888,-10.752 12.48,0 12.48,12.48 0,7.488 -4.224,27.072 -3.648,16.704 -3.648,22.08 0,7.68 5.568,7.68 3.84,0 9.024,-4.608 5.376,-4.8 14.208,-15.36 2.304,-2.688 5.184,-2.688 2.496,0 3.84,2.304 1.536,2.304 1.536,6.336 0,7.68 -3.648,11.904 -8.256,10.176 -17.856,16.704 -9.408,6.528 -21.504,6.528 -9.792,0 -14.784,-5.568 -4.992,-5.76 -4.992,-16.512 0,-5.376 2.688,-19.2 2.496,-12.096 2.496,-16.704 0,-3.072 -2.112,-3.072 -2.496,0 -7.104,6.528 -4.608,6.336 -9.216,16.896 -4.608,10.56 -7.488,22.272 -2.112,9.216 -4.992,12.288 -2.688,3.072 -8.832,3.072 -6.336,0 -9.6,-5.952 -3.072,-6.144 -3.072,-14.784 0,-7.296 1.92,-21.12 1.536,-12.288 1.536,-16.128 0,-3.072 -2.112,-3.072 -2.88,0 -7.296,6.912 -4.416,6.912 -8.64,17.664 -4.032,10.752 -6.528,21.12 -2.112,9.024 -4.992,12.288 -2.688,3.072 -8.64,3.072 z" style="font-style: normal; font-variant: normal; font-weight: normal; font-stretch: normal; font-size: 192px; font-family: Pacifico; fill: none; stroke: rgb(255, 253, 253); stroke-opacity: 1; stroke-width: 3.77953; stroke-miterlimit: 4;" id="path2764" inkscape:connector-curvature="0" class="vFfXRQOS_10"></path>
      <path d="m 377.63473,267.09136 q -11.904,0 -19.008,-8.64 -7.104,-8.64 -7.104,-22.656 0,-15.36 7.104,-28.992 7.104,-13.824 18.816,-22.08 11.904,-8.448 25.152,-8.448 4.224,0 5.568,1.728 1.536,1.536 2.496,5.76 4.032,-0.768 8.448,-0.768 9.408,0 9.408,6.72 0,4.032 -2.88,19.2 -4.416,22.08 -4.416,30.72 0,2.88 1.344,4.608 1.536,1.728 3.84,1.728 3.648,0 8.832,-4.608 5.184,-4.8 14.016,-15.36 2.304,-2.688 5.184,-2.688 2.496,0 3.84,2.304 1.536,2.304 1.536,6.336 0,7.68 -3.648,11.904 -7.872,9.792 -16.704,16.512 -8.832,6.72 -17.088,6.72 -6.336,0 -11.712,-4.224 -5.184,-4.416 -7.872,-11.904 -9.984,16.128 -25.152,16.128 z m 6.912,-19.392 q 4.224,0 8.064,-4.992 3.84,-4.992 5.568,-13.248 l 7.104,-35.328 q -8.064,0.192 -14.976,6.144 -6.72,5.76 -10.752,15.36 -4.032,9.6 -4.032,20.352 0,5.952 2.304,8.832 2.496,2.88 6.72,2.88 z" style="font-style: normal; font-variant: normal; font-weight: normal; font-stretch: normal; font-size: 192px; font-family: Pacifico; fill: none; stroke: rgb(255, 253, 253); stroke-opacity: 1; stroke-width: 3.77953; stroke-miterlimit: 4;" id="path2766" inkscape:connector-curvature="0" class="vFfXRQOS_11"></path>
      <path d="m 458.02573,267.09136 q -7.296,0 -10.368,-7.68 -2.88,-7.68 -2.88,-24.576 0,-24.96 7.104,-47.424 1.728,-5.568 5.568,-8.064 4.032,-2.688 11.136,-2.688 3.84,0 5.376,0.96 1.536,0.96 1.536,3.648 0,3.072 -2.88,13.824 -1.92,7.68 -3.072,13.44 -1.152,5.76 -1.92,14.208 6.336,-16.512 14.208,-26.88 7.872,-10.368 15.36,-14.784 7.68,-4.416 14.016,-4.416 6.144,0 9.216,3.264 3.264,3.072 3.264,9.216 0,4.992 -2.112,18.816 -1.92,11.712 -3.072,22.272 -1.152,10.368 -1.152,23.232 0,7.296 -3.072,10.56 -2.88,3.072 -9.6,3.072 -6.336,0 -9.216,-3.264 -2.88,-3.264 -2.88,-9.792 0,-7.68 2.688,-25.344 2.304,-15.36 2.304,-19.584 0,-3.072 -2.112,-3.072 -2.496,0 -7.104,6.528 -4.416,6.336 -9.216,16.896 -4.608,10.56 -7.488,22.272 -2.112,9.024 -4.992,12.288 -2.688,3.072 -8.64,3.072 z" style="font-style: normal; font-variant: normal; font-weight: normal; font-stretch: normal; font-size: 192px; font-family: Pacifico; fill: none; stroke: rgb(255, 253, 253); stroke-opacity: 1; stroke-width: 3.77953; stroke-miterlimit: 4;" id="path2768" inkscape:connector-curvature="0" class="vFfXRQOS_12"></path>
    </g>
  </g>
<style data-made-with="vivus-instant">.vFfXRQOS_0{stroke-dasharray:851 853;stroke-dashoffset:852;animation:vFfXRQOS_draw 1333ms ease-out 0ms forwards;}.vFfXRQOS_1{stroke-dasharray:938 940;stroke-dashoffset:939;animation:vFfXRQOS_draw 1333ms ease-out 55ms forwards;}.vFfXRQOS_2{stroke-dasharray:522 524;stroke-dashoffset:523;animation:vFfXRQOS_draw 1333ms ease-out 111ms forwards;}.vFfXRQOS_3{stroke-dasharray:1008 1010;stroke-dashoffset:1009;animation:vFfXRQOS_draw 1333ms ease-out 166ms forwards;}.vFfXRQOS_4{stroke-dasharray:476 478;stroke-dashoffset:477;animation:vFfXRQOS_draw 1333ms ease-out 222ms forwards;}.vFfXRQOS_5{stroke-dasharray:476 478;stroke-dashoffset:477;animation:vFfXRQOS_draw 1333ms ease-out 277ms forwards;}.vFfXRQOS_6{stroke-dasharray:480 482;stroke-dashoffset:481;animation:vFfXRQOS_draw 1333ms ease-out 333ms forwards;}.vFfXRQOS_7{stroke-dasharray:1195 1197;stroke-dashoffset:1196;animation:vFfXRQOS_draw 1333ms ease-out 388ms forwards;}.vFfXRQOS_8{stroke-dasharray:522 524;stroke-dashoffset:523;animation:vFfXRQOS_draw 1333ms ease-out 444ms forwards;}.vFfXRQOS_9{stroke-dasharray:938 940;stroke-dashoffset:939;animation:vFfXRQOS_draw 1333ms ease-out 499ms forwards;}.vFfXRQOS_10{stroke-dasharray:829 831;stroke-dashoffset:830;animation:vFfXRQOS_draw 1333ms ease-out 555ms forwards;}.vFfXRQOS_11{stroke-dasharray:522 524;stroke-dashoffset:523;animation:vFfXRQOS_draw 1333ms ease-out 611ms forwards;}.vFfXRQOS_12{stroke-dasharray:480 482;stroke-dashoffset:481;animation:vFfXRQOS_draw 1333ms ease-out 666ms forwards;}@keyframes vFfXRQOS_draw{100%{stroke-dashoffset:0;}}@keyframes vFfXRQOS_fade{0%{stroke-opacity:1;}93.54838709677419%{stroke-opacity:1;}100%{stroke-opacity:0;}}</style></svg>
